<svg width="17" height="16" viewBox="0 0 17 16" fill="none" xmlns="http://www.w3.org/2000/svg">
<path d="M8.50016 1.3335C4.82683 1.3335 1.8335 4.32683 1.8335 8.00016C1.8335 11.6735 4.82683 14.6668 8.50016 14.6668C12.1735 14.6668 15.1668 11.6735 15.1668 8.00016C15.1668 4.32683 12.1735 1.3335 8.50016 1.3335ZM11.4002 10.3802C11.3068 10.5402 11.1402 10.6268 10.9668 10.6268C10.8802 10.6268 10.7935 10.6068 10.7135 10.5535L8.64683 9.32016C8.1335 9.0135 7.7535 8.34016 7.7535 7.74683V5.0135C7.7535 4.74016 7.98016 4.5135 8.2535 4.5135C8.52683 4.5135 8.7535 4.74016 8.7535 5.0135V7.74683C8.7535 7.98683 8.9535 8.34016 9.16016 8.46016L11.2268 9.6935C11.4668 9.8335 11.5468 10.1402 11.4002 10.3802Z" fill="#F7A902"/>
</svg>
