<svg width="17" height="18" viewBox="0 0 17 18" fill="none" xmlns="http://www.w3.org/2000/svg">
<path d="M10.1645 1.9165H6.83533C6.09866 1.9165 5.49658 2.5115 5.49658 3.24817V3.914C5.49658 4.65067 6.09158 5.24567 6.82825 5.24567H10.1645C10.9012 5.24567 11.4962 4.65067 11.4962 3.914V3.24817C11.5032 2.5115 10.9012 1.9165 10.1645 1.9165Z" fill="white" fill-opacity="0.2"/>
<path d="M10.1645 1.9165H6.83533C6.09866 1.9165 5.49658 2.5115 5.49658 3.24817V3.914C5.49658 4.65067 6.09158 5.24567 6.82825 5.24567H10.1645C10.9012 5.24567 11.4962 4.65067 11.4962 3.914V3.24817C11.5032 2.5115 10.9012 1.9165 10.1645 1.9165Z" fill="#6C6C6C" fill-opacity="0.5"/>
<path d="M12.2118 3.91397C12.2118 5.04022 11.291 5.96105 10.1647 5.96105H6.83557C5.70932 5.96105 4.78848 5.04022 4.78848 3.91397C4.78848 3.5173 4.36348 3.26939 4.00932 3.45355C3.01057 3.9848 2.33057 5.04022 2.33057 6.25147V12.9169C2.33057 14.6594 3.75432 16.0831 5.49682 16.0831H11.5035C13.246 16.0831 14.6697 14.6594 14.6697 12.9169V6.25147C14.6697 5.04022 13.9897 3.9848 12.991 3.45355C12.6368 3.26939 12.2118 3.5173 12.2118 3.91397ZM10.866 9.51689L8.03265 12.3502C7.9264 12.4565 7.79182 12.5061 7.65723 12.5061C7.52265 12.5061 7.38807 12.4565 7.28182 12.3502L6.21932 11.2877C6.0139 11.0823 6.0139 10.7423 6.21932 10.5369C6.42473 10.3315 6.76473 10.3315 6.97015 10.5369L7.65723 11.224L10.1151 8.76605C10.3206 8.56064 10.6606 8.56064 10.866 8.76605C11.0714 8.97147 11.0714 9.31147 10.866 9.51689Z" fill="white" fill-opacity="0.2"/>
<path d="M12.2118 3.91397C12.2118 5.04022 11.291 5.96105 10.1647 5.96105H6.83557C5.70932 5.96105 4.78848 5.04022 4.78848 3.91397C4.78848 3.5173 4.36348 3.26939 4.00932 3.45355C3.01057 3.9848 2.33057 5.04022 2.33057 6.25147V12.9169C2.33057 14.6594 3.75432 16.0831 5.49682 16.0831H11.5035C13.246 16.0831 14.6697 14.6594 14.6697 12.9169V6.25147C14.6697 5.04022 13.9897 3.9848 12.991 3.45355C12.6368 3.26939 12.2118 3.5173 12.2118 3.91397ZM10.866 9.51689L8.03265 12.3502C7.9264 12.4565 7.79182 12.5061 7.65723 12.5061C7.52265 12.5061 7.38807 12.4565 7.28182 12.3502L6.21932 11.2877C6.0139 11.0823 6.0139 10.7423 6.21932 10.5369C6.42473 10.3315 6.76473 10.3315 6.97015 10.5369L7.65723 11.224L10.1151 8.76605C10.3206 8.56064 10.6606 8.56064 10.866 8.76605C11.0714 8.97147 11.0714 9.31147 10.866 9.51689Z" fill="#6C6C6C" fill-opacity="0.5"/>
</svg>
